<?xml version="1.0" standalone="no"?>
<!DOCTYPE svg PUBLIC "-//W3C//DTD SVG 20010904//EN"
 "http://www.w3.org/TR/2001/REC-SVG-20010904/DTD/svg10.dtd">
<svg version="1.0" xmlns="http://www.w3.org/2000/svg"
 width="1038.000000pt" height="1038.000000pt" viewBox="0 0 1038.000000 1038.000000"
 preserveAspectRatio="xMidYMid meet">
<metadata>
Created by potrace 1.14, written by Peter Selinger 2001-2017
</metadata>
<g transform="translate(0.000000,1038.000000) scale(0.100000,-0.100000)"
fill="#000000" stroke="none">
<path d="M4010 9694 c0 -3 19 -40 42 -82 23 -43 46 -86 52 -97 6 -11 17 -28
25 -37 8 -10 11 -18 8 -18 -4 0 7 -22 23 -49 17 -26 30 -53 30 -60 0 -6 5 -11
12 -11 6 0 9 -3 5 -6 -3 -3 7 -27 22 -52 15 -26 54 -96 86 -157 32 -60 61
-114 65 -120 4 -5 31 -55 61 -110 29 -55 68 -127 85 -160 18 -33 45 -85 61
-115 15 -30 30 -57 33 -60 3 -3 12 -18 20 -35 8 -16 25 -47 37 -67 13 -21 20
-38 16 -38 -5 0 -3 -4 2 -8 6 -4 20 -25 32 -47 11 -22 35 -66 52 -98 18 -33
39 -70 48 -83 8 -13 11 -24 7 -24 -5 0 -4 -4 2 -8 6 -4 36 -54 66 -112 31 -58
77 -143 102 -190 26 -47 54 -101 64 -120 9 -19 20 -36 25 -38 4 -2 7 -8 7 -13
0 -10 97 -189 110 -202 8 -9 2518 -12 2527 -3 3 3 -4 20 -15 38 -20 33 -43 75
-122 223 -24 44 -56 105 -73 135 -16 30 -37 69 -46 85 -9 17 -20 33 -26 37 -5
4 -7 8 -3 8 3 0 -18 43 -48 96 -30 53 -54 99 -54 103 0 3 -11 23 -25 44 -14
20 -23 37 -20 37 4 0 -2 12 -12 28 -11 15 -34 56 -53 92 -18 36 -42 77 -52 93
-11 15 -16 27 -12 27 4 0 1 8 -7 18 -8 9 -25 40 -39 67 -14 28 -27 52 -30 55
-4 4 -47 84 -112 210 -13 25 -25 47 -28 50 -5 5 -38 68 -94 175 -12 22 -23 42
-26 45 -3 3 -20 34 -38 70 -19 36 -46 88 -61 115 -15 28 -52 95 -81 150 -30
55 -68 127 -86 160 l-33 60 -1265 3 c-696 1 -1266 -1 -1266 -4z"/>
<path d="M2555 7423 c-14 -25 -25 -49 -25 -53 0 -5 -4 -10 -8 -12 -7 -3 -62
-98 -147 -253 -16 -27 -37 -62 -47 -77 -11 -16 -16 -28 -12 -28 4 0 0 -8 -8
-17 -8 -10 -32 -49 -53 -88 -21 -38 -41 -74 -45 -80 -6 -9 -30 -50 -84 -150
-6 -11 -13 -22 -17 -25 -3 -3 -13 -21 -22 -40 -10 -19 -27 -51 -38 -70 -12
-19 -61 -105 -109 -190 -92 -163 -94 -166 -185 -325 -32 -55 -67 -118 -80
-140 -12 -22 -32 -58 -45 -80 -12 -22 -48 -85 -78 -140 -31 -55 -58 -102 -61
-105 -4 -3 -14 -21 -23 -40 -10 -19 -31 -57 -47 -85 -16 -27 -36 -61 -44 -75
-29 -54 -156 -277 -176 -310 -11 -19 -26 -46 -33 -60 -7 -14 -20 -36 -29 -50
-9 -14 -32 -54 -51 -90 -54 -99 -81 -144 -93 -152 -5 -4 -7 -8 -3 -8 4 0 -24
-53 -61 -117 -37 -65 -79 -138 -93 -163 -41 -73 -67 -119 -136 -240 -36 -63
-76 -135 -90 -160 -42 -79 -57 -105 -62 -110 -3 -3 -10 -14 -16 -25 -41 -76
-79 -143 -90 -160 -28 -45 -75 -131 -81 -147 -3 -10 -9 -18 -14 -18 -5 0 -9
-9 -9 -20 0 -11 -4 -20 -9 -20 -5 0 -13 -10 -17 -22 -3 -13 -12 -30 -19 -38
-7 -8 -26 -39 -41 -68 -16 -29 -34 -61 -39 -70 -6 -9 -32 -55 -58 -102 -27
-47 -62 -107 -78 -135 -16 -27 -34 -61 -40 -75 -6 -14 -17 -32 -25 -41 -21
-23 -9 -27 59 -24 31 1 57 -2 57 -7 0 -5 5 -6 12 -2 16 10 388 11 388 1 0 -5
6 -5 13 0 19 12 45 14 52 3 4 -6 11 -7 17 -4 17 11 118 12 118 2 0 -5 5 -6 12
-2 16 10 268 11 268 1 0 -5 6 -5 12 0 20 12 46 14 53 3 4 -6 11 -7 18 -3 15 9
397 10 397 0 0 -5 6 -5 13 0 19 12 45 14 52 3 4 -6 11 -7 17 -4 17 11 118 12
118 2 0 -5 5 -6 12 -2 16 10 268 11 268 1 0 -5 6 -5 13 0 19 12 45 14 52 3 4
-6 11 -7 18 -3 15 9 397 10 397 0 0 -5 6 -5 13 0 18 11 40 13 52 3 6 -5 17 -5
24 0 8 4 30 6 50 4 l37 -4 129 227 c71 126 134 237 140 248 5 11 12 22 15 25
3 3 16 25 29 50 43 80 46 84 59 98 6 7 12 17 12 22 0 5 13 31 29 58 15 26 40
68 53 93 47 84 53 94 58 99 3 3 12 19 21 35 39 73 83 151 108 194 15 25 30 53
34 61 4 8 21 38 37 65 17 28 36 61 43 75 6 14 14 27 17 30 3 3 13 21 24 40 10
19 30 55 44 80 108 192 134 237 142 250 5 8 18 31 28 50 10 19 68 121 129 227
61 106 108 195 104 199 -3 4 0 5 7 3 7 -3 25 -27 40 -54 15 -28 30 -51 35 -53
4 -2 7 -7 7 -11 0 -7 81 -155 110 -201 13 -22 78 -136 113 -200 16 -30 33 -59
37 -65 4 -5 19 -30 32 -55 31 -55 56 -100 110 -193 22 -40 57 -101 76 -137 19
-36 40 -68 46 -72 6 -4 7 -8 3 -8 -5 0 1 -12 12 -26 12 -15 21 -33 21 -40 0
-8 5 -14 10 -14 6 0 10 -6 10 -14 0 -7 9 -25 21 -40 11 -14 17 -26 13 -26 -4
0 0 -8 8 -17 9 -10 28 -40 43 -68 14 -27 34 -63 44 -80 10 -16 33 -57 51 -90
65 -119 84 -150 98 -167 8 -10 11 -18 6 -18 -5 0 -4 -4 2 -8 6 -4 26 -34 44
-67 17 -33 45 -82 61 -110 15 -27 33 -59 39 -70 37 -68 172 -308 178 -315 7
-9 2616 -7 2635 2 9 5 17 13 17 18 0 5 14 33 31 62 43 73 68 116 91 161 11 20
24 40 29 43 5 3 7 10 4 15 -4 5 -1 9 4 9 6 0 11 7 11 15 0 8 5 15 10 15 6 0
10 8 10 17 0 9 6 24 13 32 19 22 97 161 97 172 0 5 4 9 8 9 4 0 13 12 19 27 7
16 28 55 48 88 19 33 38 67 42 75 8 17 89 158 103 180 6 8 13 21 17 29 4 8 31
58 61 110 88 154 99 173 133 236 17 33 34 62 38 65 6 5 17 25 63 113 11 20 24
40 29 43 5 3 9 14 9 25 0 10 4 19 8 19 8 0 36 51 32 59 -1 2 3 7 8 10 5 3 24
32 41 65 18 32 46 81 62 108 16 27 29 51 29 53 0 3 18 34 40 70 22 36 40 67
40 70 0 2 23 42 50 89 28 47 50 89 50 95 0 6 5 11 10 11 6 0 10 5 10 11 0 6 9
24 21 40 11 16 17 29 12 29 -4 0 1 7 11 15 11 8 17 15 13 15 -4 0 0 12 9 26
26 39 51 85 70 127 9 20 21 37 26 37 4 0 8 4 8 9 0 7 97 180 258 461 14 25 24
45 21 46 -2 0 4 8 14 18 9 10 17 24 17 32 0 8 4 14 9 14 5 0 11 8 14 18 6 16
30 60 103 185 19 32 34 62 34 67 0 4 3 10 8 12 6 3 33 50 81 143 9 17 19 32
23 33 5 2 8 8 8 13 0 4 20 43 45 85 25 41 45 78 45 80 0 2 11 21 23 42 13 20
35 57 49 82 53 96 282 498 319 562 21 36 39 71 39 77 0 6 4 11 9 11 5 0 11 9
14 19 5 19 -17 20 -1305 19 l-1309 0 -23 -36 c-46 -71 -226 -391 -226 -402 0
-5 -3 -10 -7 -10 -5 0 -19 -24 -33 -53 -14 -28 -33 -61 -42 -71 -10 -11 -18
-25 -18 -32 0 -7 -6 -19 -12 -26 -7 -7 -22 -31 -33 -53 -11 -22 -22 -42 -25
-45 -3 -3 -11 -16 -18 -30 -6 -14 -30 -56 -52 -95 -23 -38 -46 -81 -53 -95 -6
-14 -14 -27 -17 -30 -10 -8 -98 -169 -105 -190 -4 -11 -10 -20 -14 -20 -4 0
-13 -16 -21 -35 -8 -19 -17 -35 -21 -35 -4 0 -12 -12 -18 -27 -6 -16 -15 -35
-20 -43 -36 -54 -148 -260 -143 -260 4 0 2 -4 -4 -8 -7 -4 -39 -56 -73 -117
-34 -60 -66 -117 -71 -125 -31 -49 -200 -353 -200 -360 0 -4 -7 -13 -15 -20
-12 -10 -15 -7 -21 14 -3 14 -9 26 -14 26 -4 0 -24 33 -45 73 -20 39 -44 79
-51 88 -8 8 -14 18 -14 22 0 4 -52 97 -115 208 -63 111 -115 203 -115 206 0 3
-8 17 -18 31 -11 15 -32 52 -49 82 -17 30 -40 71 -51 90 -12 19 -33 59 -47 88
-15 28 -31 52 -36 52 -5 0 -9 7 -9 15 0 9 -11 34 -26 56 -25 40 -48 80 -87
154 -12 22 -24 42 -28 45 -3 3 -13 21 -22 40 -10 19 -22 42 -27 50 -48 77 -90
153 -90 164 0 8 -4 16 -8 18 -10 4 -78 121 -73 127 1 2 -1 7 -6 10 -8 5 -36
54 -131 221 -120 213 -158 279 -176 307 l-20 32 -1313 -1 -1312 0 -26 -45z"/>
<path d="M2635 2913 c-2 -7 -1 -13 3 -13 4 0 16 -20 27 -45 11 -25 24 -45 28
-45 5 0 5 -4 2 -10 -3 -5 -2 -10 2 -10 5 0 16 -17 25 -37 25 -53 73 -139 88
-158 7 -8 9 -15 5 -15 -4 0 -3 -6 3 -12 9 -12 39 -66 102 -183 95 -178 124
-231 133 -242 5 -7 6 -13 1 -13 -5 0 -4 -4 2 -8 6 -4 35 -52 64 -107 30 -55
74 -136 97 -180 24 -44 51 -96 61 -115 9 -19 20 -37 23 -40 3 -3 18 -31 32
-62 15 -31 32 -60 37 -63 6 -3 10 -15 10 -25 0 -10 4 -20 8 -22 5 -1 26 -37
47 -78 22 -41 42 -77 45 -80 3 -3 17 -30 33 -60 15 -30 33 -66 41 -80 41 -72
64 -116 66 -125 1 -5 10 -21 20 -35 9 -14 24 -38 32 -55 8 -16 39 -75 68 -130
30 -55 59 -110 64 -122 6 -13 14 -23 19 -23 4 0 7 -7 7 -15 0 -13 152 -15
1265 -15 736 0 1265 4 1265 9 0 5 -15 35 -33 68 -17 32 -39 72 -47 88 -8 17
-19 33 -25 37 -5 4 -7 8 -2 8 4 0 -3 17 -16 38 -14 20 -33 55 -44 77 -24 46
-64 122 -97 180 -12 22 -37 69 -56 105 -19 36 -40 73 -48 83 -9 9 -12 17 -7
17 4 0 3 6 -3 13 -16 18 -81 138 -93 170 -6 15 -15 27 -20 27 -5 0 -9 9 -9 19
0 11 -6 26 -13 33 -7 7 -30 47 -51 88 -22 41 -47 89 -57 107 -10 17 -44 80
-75 140 -32 59 -62 110 -66 111 -4 2 -6 7 -3 12 3 5 -2 16 -11 24 -8 9 -12 16
-7 16 4 0 3 4 -2 8 -6 4 -28 41 -50 82 -59 114 -72 138 -120 225 -25 44 -57
105 -72 135 -16 30 -30 57 -33 60 -6 6 -79 143 -99 188 -8 17 -19 32 -23 32
-4 0 -8 7 -8 15 0 8 -7 16 -15 16 -8 1 -21 2 -27 3 -7 1 -19 -2 -25 -7 -8 -6
-13 -6 -13 0 0 12 -49 11 -67 0 -7 -5 -13 -5 -13 0 0 10 -372 9 -388 -1 -7 -4
-12 -3 -12 2 0 11 -50 10 -67 -1 -7 -5 -13 -5 -13 0 0 10 -372 9 -388 -1 -7
-4 -12 -3 -12 2 0 11 -50 10 -67 -1 -7 -5 -13 -5 -13 0 0 10 -372 9 -388 -1
-7 -4 -12 -3 -12 2 0 11 -50 10 -67 -1 -7 -5 -13 -5 -13 0 0 10 -372 9 -388
-1 -7 -4 -12 -3 -12 2 0 11 -50 10 -67 -1 -7 -5 -13 -5 -13 0 0 4 -101 8 -225
8 -171 0 -226 -3 -230 -12z"/>
</g>
</svg>
